<svg xmlns:xlink="http://www.w3.org/1999/xlink" width="256" xmlns="http://www.w3.org/2000/svg" height="256" id="screenshot-aa5d7570-4001-11ed-bd77-2fc4e9dff19d" viewBox="-0 -0 256 256" style="-webkit-print-color-adjust: exact;" fill="none" version="1.1"><g id="shape-aa5d7570-4001-11ed-bd77-2fc4e9dff19d" rx="0" ry="0"><g id="shape-a74d4f40-4001-11ed-bd77-2fc4e9dff19d"><g id="fills-a74d4f40-4001-11ed-bd77-2fc4e9dff19d"><path rx="0" ry="0" d="M17.949,0C6.731,0,0,8.982,0,17.965L0,238.035C0,247.018,6.731,256,15.705,256L51.603,256C60.577,256,69.551,247.018,69.551,238.035L69.551,215.579L91.987,244.772C100.962,256,118.91,256,118.91,256L175,256L91.987,126.955L175,0L118.91,0C118.91,0,100.962,0,91.987,11.228C83.013,22.456,69.551,40.421,69.551,40.421L69.551,17.965C69.551,8.982,60.577,0,51.603,0L17.949,0ZL17.949,0Z" style="fill: rgb(0, 0, 0);"/></g></g><g id="shape-a74d4f41-4001-11ed-bd77-2fc4e9dff19d"><g id="fills-a74d4f41-4001-11ed-bd77-2fc4e9dff19d"><path rx="0" ry="0" d="M148.5,13.474C155.25,4.491,175.5,0,175.5,0L234,0L130.5,125.754L234,256L175.5,256C175.5,256,155.25,251.509,148.5,242.526L69.75,145.965C69.75,145.965,63,136.982,63,125.754C63,114.526,69.75,107.789,69.75,107.789L148.5,13.474ZL148.5,13.474Z" style="fill: rgb(85, 233, 153);"/></g></g><g id="shape-a74d4f42-4001-11ed-bd77-2fc4e9dff19d"><g id="fills-a74d4f42-4001-11ed-bd77-2fc4e9dff19d"><path rx="0" ry="0" d="M211,94C202,94,193,103,193,112L193,139C193,148,202,157,211,157L238,157C247,157,256,148,256,139L256,112C256,103,247,94,238,94L211,94ZZ" style="fill: rgb(0, 0, 0);"/></g></g></g></svg>